<svg version="1.1" xmlns="http://www.w3.org/2000/svg" xmlns:xlink="http://www.w3.org/1999/xlink" x="0px" y="0px" width="30px"
	 height="30px" viewBox="0 0 30 30" enable-background="new 0 0 30 30" xml:space="preserve">
<g id="book">
	<g>
		<path fill="#FFFFFF" d="M2.734,23.918V4.955c0-0.615,0.501-1.115,1.115-1.115h10.036C14.501,3.84,15,4.34,15,4.955v18.963
			c0,0.613-0.499,1.115-1.114,1.115H3.85C3.235,25.033,2.734,24.531,2.734,23.918z"/>
		<path fill="#4D4D4D" d="M2.734,23.918h0.558V4.955C3.293,4.649,3.545,4.398,3.85,4.397h10.036
			c0.305,0.001,0.556,0.251,0.557,0.558v18.963c-0.001,0.306-0.252,0.558-0.557,0.558H3.85c-0.153,0-0.291-0.062-0.395-0.164
			c-0.102-0.103-0.163-0.238-0.163-0.394H2.734H2.177c0.002,0.924,0.749,1.672,1.673,1.673h10.036
			c0.924-0.001,1.671-0.75,1.672-1.673V4.955c-0.001-0.924-0.749-1.672-1.672-1.672H3.85C2.927,3.284,2.179,4.031,2.177,4.955
			v18.963H2.734z"/>
		<path fill="#FFFFFF" d="M27.265,23.918c0,0.613-0.499,1.115-1.114,1.115H16.115c-0.614,0-1.115-0.502-1.115-1.115v-0.456V4.955
			c0-0.615,0.501-1.115,1.115-1.115H26.15c0.615,0,1.114,0.5,1.114,1.115V23.918z"/>
		<path fill="#4D4D4D" d="M27.265,23.918h-0.556c-0.002,0.306-0.252,0.558-0.559,0.558H16.115c-0.154,0-0.29-0.062-0.395-0.164
			c-0.103-0.103-0.163-0.238-0.163-0.394v-0.456V4.955c0-0.306,0.253-0.557,0.558-0.558H26.15c0.307,0.001,0.557,0.251,0.559,0.558
			v18.963H27.265h0.559V4.955c-0.001-0.924-0.749-1.672-1.673-1.672H16.115c-0.923,0.001-1.671,0.748-1.673,1.672v18.507v0.456
			c0.002,0.924,0.749,1.672,1.673,1.673H26.15c0.925-0.001,1.672-0.75,1.673-1.673H27.265z"/>
		<path fill="#4D4D4D" d="M15.535,26.141c-0.002-0.835-0.619-1.513-1.421-1.637c-0.036,0.146-0.105,0.278-0.191,0.402
			c0.003,0.123-0.013,0.246-0.041,0.364c0.025,0.106,0.042,0.215,0.043,0.328c0.276,0.032,0.494,0.258,0.496,0.542v0.576
			c0.387,0,0.754,0,1.114,0V26.141z"/>
		<path fill="#4D4D4D" d="M15.535,26.141c0-0.305,0.252-0.556,0.558-0.556h0.123c-0.029-0.103-0.044-0.206-0.049-0.312
			c-0.182-0.214-0.275-0.493-0.287-0.775c-0.821,0.105-1.458,0.794-1.459,1.644v0.576c0.387,0,0.754,0,1.114,0V26.141z"/>
	</g>
</g>
</svg>