<svg version="1.1" xmlns="http://www.w3.org/2000/svg" xmlns:xlink="http://www.w3.org/1999/xlink" x="0px" y="0px" width="30px"
	 height="30px" viewBox="0 0 30 30" enable-background="new 0 0 30 30" xml:space="preserve">
<g id="camera">
	<g>
		<path fill="#4D4D4D" d="M8.389,7.968L7.59,6.227c-0.142-0.31-0.451-0.508-0.792-0.508H4.113c-0.331,0-0.631,0.186-0.779,0.481
			L2.463,7.942C2.248,8.373,2.422,8.896,2.853,9.111c0.431,0.215,0.954,0.041,1.169-0.39l0.63-1.261H6.24l0.565,1.234
			C7.006,9.132,7.523,9.324,7.96,9.124C8.397,8.923,8.589,8.406,8.389,7.968z"/>
		<path fill="#4D4D4D" d="M9.672,8.332l0.793,0.358l1.41-3.122l-0.793-0.358l0.349,0.797l0.038-0.016h8.869V5.12l-0.35,0.798
			l0.156,0.068l0.35-0.798l-0.818,0.3l1.154,3.144c0.127,0.343,0.451,0.571,0.818,0.571h2.068h4.639V8.332L27.76,8.966l0.143,0.135
			L28.5,8.467h-0.871v16.345H28.5l-0.598-0.634l-0.07,0.067l0.596,0.635v-0.871H1.636v0.871l0.541-0.684l-0.135-0.107L1.5,24.772
			h0.871V8.622H1.5l0.63,0.601c0.124-0.129,0.232-0.267,0.327-0.411l-0.726-0.48v0.871h1.511h4.355h1.525h0.55
			c0.341,0,0.653-0.201,0.793-0.513L9.672,8.332V7.46h-0.55H7.597H3.242H1.731c-0.291,0-0.566,0.148-0.727,0.391L0.87,8.021
			C0.716,8.182,0.629,8.399,0.629,8.622v16.151c0,0.268,0.121,0.516,0.33,0.683l0.135,0.107c0.155,0.122,0.344,0.188,0.541,0.188
			h26.792c0.223,0,0.436-0.085,0.598-0.236l0.072-0.068c0.172-0.163,0.273-0.395,0.273-0.635V8.467c0-0.239-0.1-0.47-0.273-0.634
			l-0.145-0.135c-0.162-0.152-0.375-0.237-0.598-0.237h-4.639h-1.461l-0.945-2.573c-0.08-0.222-0.252-0.403-0.469-0.498
			l-0.154-0.068c-0.111-0.048-0.229-0.073-0.35-0.073h-9.051c-0.122,0-0.237,0.024-0.349,0.073l-0.204,0.089
			c-0.198,0.086-0.356,0.243-0.445,0.439l-1.41,3.123L9.672,8.332V7.46V8.332z"/>
		<path fill="#4D4D4D" d="M20.951,16.447h-0.869c0,1.229-0.496,2.333-1.303,3.14c-0.807,0.806-1.91,1.301-3.139,1.301
			c-1.229,0-2.333-0.495-3.141-1.301c-0.805-0.807-1.3-1.911-1.301-3.14c0.001-1.229,0.496-2.334,1.301-3.141
			c0.806-0.805,1.911-1.3,3.141-1.301c1.229,0,2.333,0.496,3.139,1.301c0.807,0.807,1.301,1.911,1.303,3.141H20.951h0.871
			c0-3.416-2.768-6.183-6.182-6.183c-3.416,0-6.182,2.768-6.183,6.183c0.001,3.415,2.768,6.183,6.183,6.183
			c3.415,0,6.182-2.768,6.182-6.183H20.951z"/>
		<path fill="#4D4D4D" d="M25.016,11.126h-0.871h0.654v-0.653c-0.365,0.002-0.65,0.29-0.654,0.653h0.654v-0.653v0.653h0.652
			c0-0.359-0.291-0.653-0.652-0.653v0.653h0.652h-0.652l0.461,0.462c0.119-0.117,0.193-0.287,0.191-0.462h-0.652l0.461,0.462
			l-0.461-0.462v0.653c0.174,0,0.344-0.074,0.461-0.191l-0.461-0.462v0.653v-0.653h-0.654c0,0.361,0.295,0.652,0.654,0.653v-0.653
			h-0.654H25.016h0.871c0-0.603-0.49-1.087-1.088-1.089c-0.297,0-0.576,0.122-0.77,0.319c-0.197,0.195-0.32,0.475-0.32,0.77
			c0.002,0.599,0.486,1.088,1.09,1.089c0.604-0.003,1.086-0.485,1.088-1.089H25.016z"/>
	</g>
</g>
</svg>