<svg version="1.1" xmlns="http://www.w3.org/2000/svg" xmlns:xlink="http://www.w3.org/1999/xlink" x="0px" y="0px" width="30px"
	 height="30px" viewBox="0 0 30 30" enable-background="new 0 0 30 30" xml:space="preserve">
<g id="location">
	<g>
		
			<path fill="#FFFFFF" stroke="#4D4D4D" stroke-width="2" stroke-linecap="round" stroke-linejoin="round" stroke-miterlimit="10" d="
			M15,15.586c2.264,0,4.104-1.842,4.104-4.104S17.264,7.378,15,7.378s-4.104,1.841-4.104,4.104S12.736,15.586,15,15.586z M15,4.228
			c4.001,0,7.254,3.254,7.254,7.254c0,0.266-0.019,0.55-0.063,0.917c-0.564,5.286-5.526,11.486-7.126,13.374
			c-1.639-1.89-6.672-8.076-7.255-13.387c-0.042-0.348-0.063-0.635-0.063-0.904C7.746,7.481,11,4.228,15,4.228z"/>
	</g>
</g>
</svg>