<svg version="1.1" xmlns="http://www.w3.org/2000/svg" xmlns:xlink="http://www.w3.org/1999/xlink" x="0px" y="0px" width="30px"
	 height="30px" viewBox="0 0 30 30" enable-background="new 0 0 30 30" xml:space="preserve">
<g id="cancel">
	<g>
		<path fill="none" d="M15,3.225c-3.255,0-6.192,1.316-8.326,3.449C4.542,8.808,3.225,11.746,3.225,15
			c0,3.253,1.316,6.191,3.449,8.326c2.134,2.133,5.071,3.447,8.326,3.449c3.253-0.002,6.191-1.316,8.326-3.449
			c2.133-2.135,3.447-5.072,3.449-8.326c-0.002-3.255-1.316-6.192-3.449-8.326C21.191,4.542,18.254,3.225,15,3.225z M20.404,19.268
			c0.406,0.375,0.43,1.008,0.055,1.412c-0.377,0.406-1.01,0.43-1.414,0.055l-4.32-4.008l-4.32,4.008
			C10,21.109,9.368,21.086,8.992,20.68c-0.375-0.404-0.352-1.037,0.054-1.412l4.209-3.904l-4.209-3.904
			c-0.405-0.376-0.429-1.009-0.054-1.413C9.368,9.641,10,9.618,10.405,9.993L14.725,14l4.32-4.007
			c0.404-0.375,1.037-0.352,1.414,0.054c0.375,0.404,0.352,1.037-0.055,1.413l-4.209,3.904L20.404,19.268z"/>
		<path fill="#4D4D4D" d="M15,1.225C7.392,1.226,1.226,7.392,1.225,15C1.226,22.607,7.392,28.773,15,28.775
			C22.607,28.773,28.773,22.607,28.775,15C28.773,7.392,22.607,1.226,15,1.225z M23.326,23.326
			c-2.135,2.133-5.072,3.447-8.326,3.449c-3.255-0.002-6.192-1.316-8.326-3.449C4.542,21.191,3.225,18.254,3.225,15
			c0-3.255,1.316-6.192,3.449-8.326C8.808,4.542,11.746,3.225,15,3.225c3.253,0,6.191,1.316,8.326,3.449
			c2.133,2.134,3.447,5.071,3.449,8.326C26.773,18.254,25.459,21.191,23.326,23.326z"/>
		<path fill="#4D4D4D" d="M20.459,10.046c-0.377-0.405-1.01-0.429-1.414-0.054L14.725,14l-4.32-4.007
			C10,9.618,9.368,9.641,8.992,10.046c-0.375,0.404-0.352,1.037,0.054,1.413l4.209,3.904l-4.209,3.904
			c-0.405,0.375-0.429,1.008-0.054,1.412c0.376,0.406,1.009,0.43,1.413,0.055l4.32-4.008l4.32,4.008
			c0.404,0.375,1.037,0.352,1.414-0.055c0.375-0.404,0.352-1.037-0.055-1.412l-4.209-3.904l4.209-3.904
			C20.811,11.083,20.834,10.451,20.459,10.046z"/>
	</g>
</g>
</svg>
