<svg version="1.1" xmlns="http://www.w3.org/2000/svg" xmlns:xlink="http://www.w3.org/1999/xlink" x="0px" y="0px" width="30px"
	 height="30px" viewBox="0 0 30 30" enable-background="new 0 0 30 30" xml:space="preserve">
<g id="caret-arrow-up">
	<g display="inline">
		<path fill="none" d="M14.775,3c-3.255,0-6.192,1.316-8.326,3.449C4.316,8.583,3,11.521,3,14.775c0,3.254,1.316,6.191,3.449,8.325
			c2.134,2.133,5.071,3.448,8.326,3.449c3.254-0.001,6.191-1.316,8.325-3.449c2.133-2.134,3.448-5.071,3.449-8.325
			c-0.001-3.255-1.316-6.192-3.449-8.326C20.967,4.316,18.029,3,14.775,3z M21.62,17.424c-0.357,0.42-0.989,0.471-1.409,0.112
			l-5.254-4.476L9.645,17.54c-0.422,0.356-1.053,0.302-1.409-0.12s-0.302-1.053,0.12-1.409l5.961-5.025
			c0.374-0.315,0.921-0.313,1.293,0.003l5.898,5.026C21.928,16.372,21.979,17.004,21.62,17.424z"/>
		<path fill="#4D4D4D" d="M14.775,1C7.167,1.001,1.001,7.167,1,14.775c0.001,7.607,6.167,13.773,13.775,13.774
			c7.607-0.001,13.773-6.167,13.774-13.774C28.549,7.167,22.383,1.001,14.775,1z M23.101,23.101
			c-2.134,2.133-5.071,3.448-8.325,3.449c-3.255-0.001-6.192-1.316-8.326-3.449C4.316,20.967,3,18.029,3,14.775
			c0-3.255,1.316-6.192,3.449-8.326C8.583,4.316,11.521,3,14.775,3c3.254,0,6.191,1.316,8.325,3.449
			c2.133,2.134,3.448,5.071,3.449,8.326C26.549,18.029,25.233,20.967,23.101,23.101z"/>
		<path fill="#4D4D4D" d="M15.609,10.988c-0.372-0.316-0.919-0.318-1.293-0.003l-5.961,5.025c-0.422,0.356-0.477,0.987-0.12,1.409
			s0.987,0.477,1.409,0.12l5.312-4.479l5.254,4.476c0.42,0.358,1.052,0.308,1.409-0.112c0.358-0.42,0.308-1.052-0.112-1.409
			L15.609,10.988z"/>
	</g>
</g>
</svg>
