<svg version="1.1" xmlns="http://www.w3.org/2000/svg" xmlns:xlink="http://www.w3.org/1999/xlink" x="0px" y="0px" width="30px"
	 height="30px" viewBox="0 0 30 30" enable-background="new 0 0 30 30" xml:space="preserve">
<g id="check">
	<g display="inline">
		<path fill="none" d="M15,3.225c-3.254,0-6.191,1.316-8.326,3.449C4.541,8.808,3.225,11.745,3.225,15
			c0,3.254,1.316,6.191,3.449,8.326c2.135,2.133,5.072,3.447,8.326,3.449c3.254-0.002,6.191-1.316,8.326-3.449
			c2.133-2.135,3.447-5.072,3.449-8.326c-0.002-3.255-1.316-6.192-3.449-8.326C21.191,4.541,18.254,3.225,15,3.225z M22.684,10.979
			l-7.775,9.412c-0.172,0.209-0.424,0.34-0.693,0.361c-0.27,0.02-0.539-0.07-0.74-0.25l-5.322-4.731
			c-0.412-0.366-0.449-0.999-0.082-1.411c0.365-0.413,0.998-0.45,1.41-0.083l4.547,3.689L21.141,9h0.002
			c0.352,0,0.98-0.134,1.406,0.218C22.975,9.57,23.035,10.553,22.684,10.979z"/>
		<path fill="#4D4D4D" d="M15,1.225C7.393,1.226,1.226,7.392,1.225,15C1.226,22.607,7.393,28.773,15,28.775
			C22.607,28.773,28.773,22.607,28.775,15C28.773,7.392,22.607,1.226,15,1.225z M23.326,23.326
			c-2.135,2.133-5.072,3.447-8.326,3.449c-3.254-0.002-6.191-1.316-8.326-3.449C4.541,21.191,3.225,18.254,3.225,15
			c0-3.255,1.316-6.192,3.449-8.326C8.809,4.541,11.746,3.225,15,3.225s6.191,1.316,8.326,3.449
			c2.133,2.134,3.447,5.071,3.449,8.326C26.773,18.254,25.459,21.191,23.326,23.326z"/>
		<path fill="#4D4D4D" d="M21.143,9h-0.002l-7.113,8.966L9.48,14.101c-0.412-0.367-1.045-0.242-1.41,0.171
			c-0.367,0.412-0.33,1.089,0.082,1.455l5.322,4.753c0.201,0.182,0.471,0.28,0.74,0.261c0.27-0.021,0.521-0.146,0.693-0.355
			l7.775-9.409c0.352-0.426,0.291-1.406-0.135-1.759C22.123,8.865,21.494,9,21.143,9z"/>
	</g>
</g>
</svg>
