<svg version="1.1" xmlns="http://www.w3.org/2000/svg" xmlns:xlink="http://www.w3.org/1999/xlink" x="0px" y="0px" width="30px"
	 height="30px" viewBox="0 0 30 30" enable-background="new 0 0 30 30" xml:space="preserve">
<g id="download">
	<g>
		<path fill="#4D4D4D" d="M18.807,23.133l-3.332,2.994V12.709c0-0.553-0.447-1-1-1s-1,0.447-1,1v13.341l-3.248-2.918
			c-0.41-0.369-1.043-0.336-1.412,0.074c-0.369,0.412-0.335,1.045,0.076,1.414l4.916,4.416c0.191,0.172,0.432,0.248,0.67,0.248
			l0.04,0.006l0.04-0.006c0.238,0,0.479-0.076,0.67-0.248l4.916-4.416c0.412-0.369,0.445-1.002,0.076-1.414
			C19.85,22.797,19.217,22.764,18.807,23.133z"/>
		<path fill="#4D4D4D" d="M25.004,8.544c-0.02-0.346-0.055-0.685-0.111-1.008c-0.682-3.88-4.059-6.825-8.131-6.827
			c-2.865,0-5.377,1.47-6.858,3.684C9.807,4.386,9.712,4.376,9.611,4.376c-1.788,0-3.364,0.876-4.353,2.202
			c-3.045,0.875-5.281,3.657-5.283,6.985c0.002,3.495,2.456,6.409,5.738,7.124l0.213,0.021h0.318h2.363h1.867c0.552,0,1-0.447,1-1
			s-0.448-1-1-1H8.608H6.245H6.067c-2.341-0.545-4.094-2.637-4.092-5.145c-0.002-2.481,1.713-4.559,4.019-5.13l0.028-0.008
			l0.119-0.033C6.375,8.328,6.583,8.175,6.714,7.97c0.619-0.961,1.679-1.594,2.896-1.594c0.19,0,0.394,0.023,0.618,0.064
			c0.422,0.075,0.845-0.124,1.053-0.499c1.07-1.928,3.12-3.233,5.48-3.232c3.084-0.002,5.645,2.236,6.16,5.173
			c0.064,0.366,0.104,0.729,0.104,1.091c0,0.078-0.01,0.2-0.02,0.368c-0.031,0.546,0.379,1.012,0.924,1.053
			c2.289,0.171,4.096,2.08,4.096,4.413c0,0.727-0.18,1.406-0.488,2.011c-0.777,1.207-1.928,1.887-3.227,1.891h-3.01h-2.826
			c-0.553,0-1,0.447-1,1s0.447,1,1,1h2.826h3.01c2.055,0.004,3.869-1.131,4.943-2.857l0.037-0.066
			c0.467-0.889,0.734-1.905,0.734-2.978C30.023,11.74,27.877,9.188,25.004,8.544z"/>
	</g>
</g>
</svg>
