<svg version="1.1" xmlns="http://www.w3.org/2000/svg" xmlns:xlink="http://www.w3.org/1999/xlink" x="0px" y="0px" width="30px"
	 height="30px" viewBox="0 0 30 30" enable-background="new 0 0 30 30" xml:space="preserve">
<g id="download">
	<g display="inline">
		<g>
			
				<line fill="none" stroke="#4D4D4D" stroke-linecap="round" stroke-linejoin="round" stroke-miterlimit="10" x1="14.5" y1="14" x2="14.5" y2="27"/>
		</g>
		<path fill="none" stroke="#4D4D4D" stroke-linecap="round" stroke-linejoin="round" stroke-miterlimit="10" d="M18,20.5h2.885
			h2.848c1.592,0,3-0.674,3.874-2.07c0.373-0.711,0.586-1.426,0.586-2.286c0-2.706-2.094-4.871-4.75-5.07
			c0.007-0.133,0.02-0.242,0.02-0.376c0-0.409-0.043-0.795-0.111-1.183c-0.565-3.225-3.373-5.671-6.76-5.671
			c-2.589,0-4.841,1.435-6.013,3.547c-3.069-0.917-4.29,1.868-4.29,1.868S6.212,9.279,6.175,9.292
			c-2.594,0.643-4.521,2.789-4.521,5.582c0,2.853,2.007,4.626,4.685,5.626H6.64h2.235h1.768H11"/>
		<polyline fill="none" stroke="#4D4D4D" stroke-linecap="round" stroke-linejoin="round" stroke-miterlimit="10" points="
			18.405,24.304 14.361,27.983 10.343,24.285 		"/>
	</g>
</g>
</svg>
