<svg version="1.1" xmlns="http://www.w3.org/2000/svg" xmlns:xlink="http://www.w3.org/1999/xlink" x="0px" y="0px" width="30px"
	 height="30px" viewBox="0 0 30 30" enable-background="new 0 0 30 30" xml:space="preserve">
<g id="edit">
	<g>
		<path fill="#FFFFFF" d="M25.288,25.288l-1.486-4.483L11.812,8.816L11.07,9.557l-2.254,2.255l11.989,11.99L25.288,25.288z
			 M6.817,9.815l2.998-2.998L8.331,5.333c-0.828-0.828-2.169-0.828-2.997,0c-0.828,0.827-0.828,2.17,0,2.997L6.817,9.815z"/>
		<path fill="#4D4D4D" d="M25.288,25.288l0.67-0.223l-1.485-4.482c-0.035-0.106-0.092-0.198-0.171-0.277L12.312,8.316
			c-0.276-0.276-0.723-0.276-0.999,0l-0.742,0.741l0,0l-2.254,2.255c-0.276,0.276-0.276,0.723,0,1l11.989,11.99
			c0.079,0.079,0.171,0.136,0.277,0.171l4.482,1.485c0.254,0.084,0.531,0.02,0.722-0.171s0.255-0.468,0.171-0.722L25.288,25.288
			l0.222-0.671l-4.324-1.433L9.815,11.812l1.755-1.756v0l0.242-0.242l11.373,11.371l1.433,4.324L25.288,25.288l0.222-0.671
			L25.288,25.288z M6.817,9.815l0.5,0.5l2.998-2.998c0.131-0.131,0.207-0.313,0.207-0.5s-0.075-0.368-0.207-0.5L8.83,4.833
			c-0.55-0.55-1.277-0.828-1.998-0.828c-0.721,0-1.448,0.277-1.999,0.828h0c-0.551,0.55-0.829,1.277-0.828,1.999
			c0,0.721,0.277,1.449,0.828,1.999l0,0l1.484,1.484c0.131,0.131,0.313,0.207,0.5,0.207c0.186,0,0.368-0.075,0.5-0.207L6.817,9.815
			l0.5-0.5L5.833,7.831l0,0C5.556,7.554,5.42,7.196,5.419,6.832C5.42,6.468,5.556,6.11,5.833,5.833v0
			C6.111,5.556,6.468,5.42,6.832,5.419C7.195,5.42,7.553,5.556,7.831,5.833l0.985,0.984L6.317,9.315L6.817,9.815l0.5-0.5
			L6.817,9.815z"/>
	</g>
</g>
</svg>