<svg version="1.1" xmlns="http://www.w3.org/2000/svg" xmlns:xlink="http://www.w3.org/1999/xlink" x="0px" y="0px" width="30px"
	 height="30px" viewBox="0 0 30 30" enable-background="new 0 0 30 30" xml:space="preserve">
<g id="heart">
	<g>
		
			<path fill="#FFFFFF" stroke="#4D4D4D" stroke-width="2" stroke-linecap="round" stroke-linejoin="round" stroke-miterlimit="10" d="
			M26.898,11.155c-0.143-2.128-0.637-3.865-2.387-5.221c-1.13-0.875-2.534-1.374-3.966-1.374c-2.511,0-4.675,1.574-5.706,3.689
			c-1.032-2.115-3.197-3.745-5.707-3.745c-2.727,0-5.451,1.939-6.161,4.61c-1.01,3.807,0.313,7.649,2.891,10.487
			c2.019,2.221,4.603,3.926,7.294,5.221c0.229,0.109,1.245,0.76,1.51,0.664C14.676,25.484,27.545,20.85,26.898,11.155z"/>
	</g>
</g>
</svg>