<svg version="1.1" xmlns="http://www.w3.org/2000/svg" xmlns:xlink="http://www.w3.org/1999/xlink" x="0px" y="0px" width="30px"
	 height="30px" viewBox="0 0 30 30" enable-background="new 0 0 30 30" xml:space="preserve">
<g id="location">
	<g display="inline">
		<path fill="#FFFFFF" stroke="#4D4D4D" stroke-linecap="round" stroke-linejoin="round" stroke-miterlimit="10" d="M15,15.608
			c2.348,0,4.258-1.91,4.258-4.258S17.348,7.094,15,7.094c-2.348,0-4.257,1.909-4.257,4.257S12.652,15.608,15,15.608z M15,3.826
			c4.151,0,7.526,3.375,7.526,7.524c0,0.276-0.02,0.57-0.068,0.951c-0.584,5.483-5.732,11.917-7.39,13.872
			c-1.7-1.959-6.922-8.377-7.526-13.886c-0.044-0.36-0.065-0.657-0.065-0.938C7.475,7.201,10.85,3.826,15,3.826z"/>
	</g>
</g>
</svg>