<svg version="1.1" xmlns="http://www.w3.org/2000/svg" xmlns:xlink="http://www.w3.org/1999/xlink" x="0px" y="0px" width="30px"
	 height="30px" viewBox="0 0 30 30" enable-background="new 0 0 30 30" xml:space="preserve">
<g id="safety">
	<g display="inline">
		<path fill="#FFFFFF" stroke="#4D4D4D" stroke-linecap="round" stroke-linejoin="round" stroke-miterlimit="10" d="M26.645,23.342
			L15.531,5.093c-0.183-0.3-0.521-0.474-0.871-0.45l-0.039,0.004c-0.301,0.021-0.576,0.188-0.734,0.445L2.64,23.371
			c-0.153,0.249-0.182,0.554-0.078,0.827l0.01,0.361c0.139,0.365,0.487,0.94,0.879,0.94h22.366c0.386,0,0.736-0.573,0.877-0.932
			l0.022-0.227C26.822,24.069,26.796,23.592,26.645,23.342z"/>
		<rect x="10.609" y="11.832" fill="none" width="8.627" height="14.668"/>
		<text transform="matrix(1 0 0 1 13.0376 21.8457)" fill="#4D4D4D" font-family="'OpenSans-Bold'" font-size="13.1755">!</text>
	</g>
</g>
</svg>