<svg version="1.1" xmlns="http://www.w3.org/2000/svg" xmlns:xlink="http://www.w3.org/1999/xlink" x="0px" y="0px" width="30px"
	 height="30px" viewBox="0 0 30 30" enable-background="new 0 0 30 30" xml:space="preserve">
<g id="safety">
	<g>
		<polygon fill="#FFFFFF" points="26.9,24.665 15.092,5.273 15.051,5.276 3.1,24.699 3.111,24.728 26.876,24.728 		"/>
		<path fill="#4D4D4D" d="M26.9,24.665l0.854-0.521L15.947,4.753c-0.194-0.318-0.554-0.504-0.926-0.478L14.98,4.279
			c-0.32,0.022-0.612,0.199-0.78,0.473L2.249,24.175c-0.163,0.265-0.193,0.589-0.083,0.879l0.011,0.028
			c0.147,0.39,0.518,0.646,0.935,0.646h23.765c0.41,0,0.782-0.254,0.932-0.636l0.024-0.062c0.112-0.29,0.084-0.619-0.077-0.885
			L26.9,24.665l-0.932-0.364l-0.024,0.062l0.932,0.364v-1H3.111v1l0.935-0.354l-0.011-0.028L3.1,24.699l0.852,0.524L15.903,5.801
			l-0.852-0.524l0.071,0.997l0.041-0.003l-0.071-0.997l-0.854,0.52l11.808,19.393L26.9,24.665l-0.932-0.364L26.9,24.665z"/>
		<line fill="#FFFFFF" x1="15" y1="13.541" x2="15" y2="17.541"/>
		<path fill="#4D4D4D" d="M14,13.541v4c0,0.553,0.447,1,1,1s1-0.447,1-1v-4c0-0.553-0.447-1-1-1S14,12.988,14,13.541"/>
		<path fill="#4D4D4D" d="M15.234,20.541h-1h0.75v-0.75c-0.418,0.003-0.747,0.332-0.75,0.75h0.75v-0.75v0.75h0.75
			c-0.001-0.412-0.335-0.75-0.75-0.75v0.75h0.75h-0.75l0.53,0.53c0.136-0.134,0.221-0.329,0.22-0.53h-0.75l0.53,0.53l-0.53-0.53
			v0.75c0.201,0.001,0.396-0.084,0.53-0.22l-0.53-0.53v0.75v-0.75h-0.75c0,0.415,0.338,0.749,0.75,0.75v-0.75h-0.75H15.234h1
			c0-0.692-0.562-1.248-1.25-1.25c-0.34-0.001-0.66,0.141-0.884,0.365c-0.227,0.225-0.367,0.545-0.366,0.885
			c0.001,0.688,0.558,1.25,1.25,1.25c0.693-0.003,1.247-0.557,1.25-1.25H15.234z"/>
	</g>
</g>
</svg>