<svg version="1.1" xmlns="http://www.w3.org/2000/svg" xmlns:xlink="http://www.w3.org/1999/xlink" x="0px" y="0px" width="30px"
	 height="30px" viewBox="0 0 30 30" enable-background="new 0 0 30 30" xml:space="preserve">
<g id="settings">
	
		<path fill="#FFFFFF" stroke="#4D4D4D" stroke-width="2" stroke-linecap="round" stroke-linejoin="round" stroke-miterlimit="10" d="
		M26.489,13.352h-2.405c-0.229-0.914-0.533-1.751-0.99-2.513l1.715-1.714c-0.004-0.077-0.006-0.152-0.002-0.229l-3.064-3.064
		c-0.109-0.003-0.213-0.014-0.311-0.032l-1.688,1.689c-0.762-0.458-1.6-0.838-2.513-1.067V4.008
		c-0.067-0.053-0.129-0.112-0.186-0.174h-4.422c-0.036,0.039-0.075,0.072-0.114,0.107v2.406c-0.913,0.229-1.751,0.609-2.512,1.065
		L8.242,5.729C8.201,5.723,8.16,5.717,8.123,5.708L4.869,8.963c0,0.03-0.006,0.06-0.008,0.091l1.787,1.785
		c-0.457,0.762-0.762,1.6-0.992,2.513H3.104c-0.035,0.036-0.073,0.072-0.112,0.106v4.485c0.048,0.04,0.095,0.083,0.137,0.13h2.604
		c0.228,0.838,0.608,1.675,1.065,2.359l-1.869,1.87c-0.006,0.066-0.008,0.134-0.021,0.199l3.263,3.262l1.979-1.98
		c0.761,0.381,1.522,0.762,2.36,0.913v2.546c0.093,0.082,0.175,0.174,0.248,0.272h4.35c0.038-0.046,0.082-0.088,0.124-0.132v-2.687
		c0.838-0.228,1.599-0.532,2.36-0.913l1.857,1.859c0.021-0.001,0.036-0.006,0.057-0.006c0.062,0,0.115,0.013,0.176,0.017l3.12-3.121
		c-0.002-0.076,0.005-0.152,0.01-0.229l-1.869-1.87c0.457-0.761,0.761-1.521,1.065-2.359h2.538c0.062-0.062,0.129-0.119,0.203-0.171
		v-4.305C26.652,13.524,26.567,13.442,26.489,13.352z"/>
	
		<circle fill="none" stroke="#4D4D4D" stroke-width="2" stroke-linecap="round" stroke-linejoin="round" stroke-miterlimit="10" cx="14.825" cy="15.617" r="3.988"/>
</g>
</svg>