<svg version="1.1" xmlns="http://www.w3.org/2000/svg" xmlns:xlink="http://www.w3.org/1999/xlink" x="0px" y="0px" width="30px"
	 height="30px" viewBox="0 0 30 30" enable-background="new 0 0 30 30" xml:space="preserve">
<g id="settings">
	<g display="inline">
		<path fill="none" stroke="#4D4D4D" stroke-linecap="round" stroke-linejoin="round" stroke-miterlimit="10" d="M25.646,12.871
			h-2.204c-0.209-0.836-0.488-1.604-0.907-2.302l1.572-1.57c-0.004-0.071-0.005-0.14-0.002-0.21L21.297,5.98
			c-0.101-0.003-0.195-0.013-0.285-0.029l-1.547,1.548c-0.697-0.418-1.466-0.767-2.302-0.977V4.31
			c-0.062-0.049-0.117-0.103-0.169-0.159h-4.053c-0.032,0.035-0.068,0.066-0.104,0.099v2.204c-0.835,0.209-1.604,0.558-2.302,0.976
			L8.925,5.887C8.888,5.882,8.851,5.876,8.817,5.868L5.834,8.851c0,0.027-0.003,0.055-0.005,0.082l1.636,1.637
			c-0.418,0.697-0.697,1.466-0.907,2.302H4.219c-0.033,0.033-0.068,0.066-0.104,0.098v4.109c0.044,0.039,0.087,0.077,0.126,0.119
			h2.386c0.209,0.769,0.558,1.534,0.977,2.164l-1.713,1.713c-0.005,0.06-0.008,0.121-0.02,0.181l2.989,2.991l1.812-1.815
			c0.699,0.35,1.396,0.697,2.164,0.837v2.331c0.085,0.077,0.16,0.159,0.228,0.251h3.986c0.034-0.043,0.074-0.081,0.113-0.121v-2.461
			c0.769-0.209,1.466-0.487,2.163-0.837l1.703,1.702c0.019-0.001,0.031-0.004,0.051-0.004c0.057,0,0.106,0.012,0.16,0.016
			l2.859-2.859c-0.002-0.072,0.005-0.142,0.01-0.211l-1.712-1.713c0.418-0.698,0.696-1.396,0.976-2.164h2.325
			c0.057-0.057,0.118-0.108,0.187-0.156v-3.944C25.796,13.029,25.718,12.954,25.646,12.871z"/>
		
			<circle fill="none" stroke="#4D4D4D" stroke-linecap="round" stroke-linejoin="round" stroke-miterlimit="10" cx="14.913" cy="15.018" r="3.655"/>
	</g>
</g>
</svg>