<svg version="1.1" xmlns="http://www.w3.org/2000/svg" xmlns:xlink="http://www.w3.org/1999/xlink" x="0px" y="0px" width="30px"
	 height="30px" viewBox="0 0 30 30" enable-background="new 0 0 30 30" xml:space="preserve">
<g id="snack">
	<g>
		<line fill="#FFFFFF" x1="17.894" y1="3.282" x2="17.774" y2="26.37"/>
		<path fill="#4D4D4D" d="M17.57,3.281l-0.118,23.087c0,0.179,0.143,0.322,0.321,0.324c0.178,0.002,0.323-0.143,0.324-0.32
			l0.118-23.088c0-0.178-0.144-0.323-0.321-0.324S17.571,3.103,17.57,3.281"/>
		<path fill="#FFFFFF" d="M20.896,9.245l-5.748,0.184c-0.619,0.021-1.205-0.373-1.231-0.842l-0.142-2.544
			c-0.026-0.468,0.515-0.867,1.134-0.886l5.747-0.185l1.839,2.081L20.896,9.245z"/>
		<path fill="#4D4D4D" d="M20.896,9.245l-0.011-0.323l-5.747,0.185l-0.034,0c-0.233,0-0.465-0.077-0.625-0.191
			c-0.08-0.056-0.142-0.12-0.181-0.18c-0.039-0.061-0.056-0.116-0.059-0.167l-0.144-2.544V6.009c0-0.05,0.014-0.1,0.047-0.158
			c0.049-0.085,0.15-0.179,0.288-0.25c0.137-0.071,0.31-0.117,0.487-0.122l5.596-0.18l1.567,1.773l-1.446,1.982L20.896,9.245
			l-0.011-0.323L20.896,9.245l0.261,0.19l1.599-2.192c0.089-0.122,0.081-0.291-0.02-0.404l-1.839-2.081
			c-0.063-0.072-0.156-0.112-0.252-0.109l-5.748,0.185c-0.366,0.013-0.707,0.129-0.975,0.327c-0.134,0.099-0.249,0.219-0.334,0.362
			c-0.084,0.143-0.137,0.31-0.137,0.486l0.001,0.052l0.142,2.544c0.01,0.177,0.071,0.342,0.163,0.482
			c0.139,0.21,0.339,0.373,0.57,0.486s0.498,0.179,0.776,0.179l0.055,0l5.748-0.185c0.099-0.003,0.191-0.052,0.25-0.132
			L20.896,9.245z"/>
		<path fill="#FFFFFF" d="M15.094,10.387l5.191,0.009c0.559,0.001,1.067,0.374,1.065,0.796l-0.007,2.298
			c-0.003,0.424-0.512,0.766-1.072,0.765l-5.191-0.01l-1.544-1.932L15.094,10.387z"/>
		<path fill="#4D4D4D" d="M15.094,10.387l-0.001,0.323l5.192,0.009c0.208-0.001,0.412,0.072,0.549,0.175
			c0.069,0.051,0.121,0.108,0.151,0.161c0.03,0.052,0.042,0.096,0.042,0.136h0.261l-0.261-0.001v0.001h0.261l-0.261-0.001
			l0.001,0.021l0.322-0.017l-0.323-0.001l-0.007,2.299c0,0.04-0.012,0.081-0.041,0.128c-0.042,0.072-0.135,0.155-0.262,0.216
			s-0.283,0.099-0.443,0.099v0.259l0.003-0.259h-0.003v0.259l0.003-0.259c-0.003,0.001-0.021-0.001-0.058,0.004l0.052,0.319
			l0.001-0.323l-5.036-0.009l-1.287-1.609l1.396-1.725L15.094,10.387l-0.001,0.323L15.094,10.387l-0.25-0.203l-1.559,1.927
			c-0.095,0.118-0.096,0.286-0.001,0.404l1.545,1.933c0.062,0.076,0.153,0.121,0.251,0.121l5.191,0.009l0.052-0.003l-0.05-0.312
			l0.004,0.315l0.046-0.003l-0.05-0.312l0.004,0.315l-0.003-0.296l-0.003,0.296h0.006l-0.003-0.296l-0.003,0.296h0.003
			c0.345,0,0.671-0.102,0.929-0.282c0.129-0.09,0.241-0.202,0.325-0.337c0.084-0.135,0.137-0.295,0.137-0.466l0.008-2.299v-0.017
			l-0.3,0.015h0.3v-0.015l-0.3,0.015h0.3h-0.261l0.261,0.002v-0.002h-0.261l0.261,0.002V11.19c0-0.17-0.053-0.33-0.134-0.467
			c-0.123-0.205-0.309-0.363-0.523-0.474c-0.218-0.111-0.467-0.176-0.729-0.176l-5.191-0.01c-0.098,0-0.189,0.043-0.251,0.12
			L15.094,10.387z"/>
		<line fill="#FFFFFF" x1="6.942" y1="10.624" x2="19.988" y2="26.717"/>
		<path fill="#4D4D4D" d="M6.692,10.828L19.738,26.92c0.112,0.14,0.315,0.159,0.454,0.048c0.137-0.113,0.159-0.315,0.047-0.454
			L7.193,10.421c-0.112-0.139-0.316-0.16-0.454-0.047C6.601,10.486,6.58,10.689,6.692,10.828"/>
		<path fill="#FFFFFF" d="M12.417,13.055l-3.885,3.396c-0.419,0.367-1.049,0.428-1.334,0.116l-1.546-1.685
			c-0.285-0.31-0.135-0.894,0.283-1.259l3.885-3.397l2.459,0.399L12.417,13.055z"/>
		<path fill="#4D4D4D" d="M12.417,13.055l-0.212-0.243L8.32,16.209c-0.175,0.154-0.415,0.237-0.6,0.235
			c-0.146,0-0.24-0.045-0.285-0.096L5.89,14.664c-0.038-0.04-0.061-0.096-0.062-0.188c-0.004-0.168,0.111-0.431,0.319-0.61
			l3.771-3.296l2.054,0.333l0.122,2.172L12.417,13.055l-0.212-0.243L12.417,13.055l0.321-0.018l-0.136-2.43
			c-0.009-0.151-0.122-0.276-0.271-0.301L9.872,9.908C9.778,9.892,9.68,9.92,9.608,9.983L5.724,13.38
			c-0.335,0.296-0.537,0.691-0.541,1.096c-0.001,0.218,0.068,0.448,0.231,0.624l1.546,1.686c0.204,0.22,0.488,0.306,0.76,0.306
			c0.356-0.004,0.725-0.138,1.023-0.396l3.885-3.396c0.075-0.066,0.115-0.163,0.109-0.262L12.417,13.055z"/>
		<path fill="#FFFFFF" d="M9.167,17.275l3.608-2.944c0.39-0.318,0.953-0.348,1.193-0.053l1.301,1.6
			c0.239,0.293,0.081,0.821-0.308,1.138l-3.609,2.946l-2.172-0.463L9.167,17.275z"/>
		<path fill="#4D4D4D" d="M9.167,17.275l0.204,0.251l3.608-2.946c0.148-0.122,0.342-0.185,0.493-0.185
			c0.065,0,0.122,0.012,0.163,0.028c0.041,0.017,0.065,0.037,0.083,0.058l1.303,1.6c0.022,0.029,0.039,0.068,0.039,0.139
			c0.001,0.071-0.022,0.169-0.074,0.269s-0.131,0.197-0.229,0.278l-3.488,2.848l-1.768-0.377L9.49,17.273L9.167,17.275l0.204,0.251
			L9.167,17.275H8.845l0.014,2.226c0,0.151,0.106,0.282,0.255,0.314l2.172,0.462c0.095,0.02,0.195-0.004,0.271-0.065l3.61-2.946
			c0.165-0.136,0.298-0.3,0.391-0.479c0.093-0.177,0.148-0.369,0.148-0.567c0.001-0.188-0.055-0.385-0.186-0.546l-1.301-1.599
			c-0.095-0.117-0.216-0.199-0.346-0.25c-0.128-0.051-0.265-0.073-0.401-0.073c-0.312,0.001-0.632,0.113-0.9,0.329l-3.609,2.946
			c-0.076,0.062-0.119,0.153-0.119,0.25H9.167z"/>
	</g>
</g>
</svg>
