<svg version="1.1" xmlns="http://www.w3.org/2000/svg" xmlns:xlink="http://www.w3.org/1999/xlink" x="0px" y="0px" width="30px"
	 height="30px" viewBox="0 0 30 30" enable-background="new 0 0 30 30" xml:space="preserve">
<g id="snack">
	<g display="inline">
		<g>
			
				<line fill="#FFFFFF" stroke="#4D4D4D" stroke-linecap="round" stroke-linejoin="round" stroke-miterlimit="10" x1="18.971" y1="2.653" x2="18.851" y2="26.202"/>
			<path fill="#FFFFFF" stroke="#4D4D4D" stroke-linecap="round" stroke-linejoin="round" stroke-miterlimit="10" d="M22.033,8.735
				l-5.862,0.188c-0.632,0.02-1.229-0.381-1.256-0.859l-0.146-2.596c-0.027-0.479,0.525-0.883,1.157-0.904l5.863-0.188l1.875,2.123
				L22.033,8.735z"/>
			<path fill="#FFFFFF" stroke="#4D4D4D" stroke-linecap="round" stroke-linejoin="round" stroke-miterlimit="10" d="M16.116,9.9
				l5.296,0.009c0.569,0.002,1.088,0.381,1.086,0.813l-0.008,2.344c-0.002,0.432-0.521,0.781-1.092,0.78l-5.296-0.01l-1.576-1.971
				L16.116,9.9z"/>
		</g>
		<g>
			
				<line fill="#FFFFFF" stroke="#4D4D4D" stroke-linecap="round" stroke-linejoin="round" stroke-miterlimit="10" x1="7.8" y1="10.141" x2="21.108" y2="26.557"/>
			<path fill="#FFFFFF" stroke="#4D4D4D" stroke-linecap="round" stroke-linejoin="round" stroke-miterlimit="10" d="M13.385,12.621
				l-3.962,3.465c-0.428,0.374-1.07,0.435-1.361,0.118l-1.577-1.719c-0.291-0.316-0.138-0.912,0.289-1.285l3.962-3.465l2.509,0.407
				L13.385,12.621z"/>
			<path fill="#FFFFFF" stroke="#4D4D4D" stroke-linecap="round" stroke-linejoin="round" stroke-miterlimit="10" d="M10.071,16.926
				l3.681-3.004c0.397-0.323,0.972-0.354,1.216-0.053l1.329,1.632c0.244,0.299,0.082,0.837-0.315,1.161L12.3,19.666l-2.216-0.472
				L10.071,16.926z"/>
		</g>
	</g>
</g>
</svg>
